<?xml version="1.0"?>
<svg xmlns="http://www.w3.org/2000/svg" xmlns:xlink="http://www.w3.org/1999/xlink" xmlns:svgjs="http://svgjs.com/svgjs" version="1.1" width="512" height="512" x="0" y="0" viewBox="0 0 24 24" style="enable-background:new 0 0 512 512" xml:space="preserve"><g><path xmlns="http://www.w3.org/2000/svg" d="M12,0A12,12,0,1,0,24,12,12.013,12.013,0,0,0,12,0Zm0,22A10,10,0,1,1,22,12,10.011,10.011,0,0,1,12,22Z" fill="#000000" data-original="#000000"/><path xmlns="http://www.w3.org/2000/svg" d="M12.717,5.063A4,4,0,0,0,8,9a1,1,0,0,0,2,0,2,2,0,0,1,2.371-1.967,2.024,2.024,0,0,1,1.6,1.595,2,2,0,0,1-1,2.125A3.954,3.954,0,0,0,11,14.257V15a1,1,0,0,0,2,0v-.743a1.982,1.982,0,0,1,.93-1.752,4,4,0,0,0-1.213-7.442Z" fill="#000000" data-original="#000000"/><rect xmlns="http://www.w3.org/2000/svg" x="11" y="17" width="2" height="2" rx="1" fill="#000000" data-original="#000000"/></g></svg>
